<?xml version="1.0" encoding="utf-8"?>
<!-- Generator: Adobe Illustrator 24.1.0, SVG Export Plug-In . SVG Version: 6.00 Build 0)  -->
<svg version="1.1" id="Layer_1" xmlns="http://www.w3.org/2000/svg" xmlns:xlink="http://www.w3.org/1999/xlink" x="0px" y="0px"
	 viewBox="0 0 150 50" style="enable-background:new 0 0 150 50;" xml:space="preserve">
<style type="text/css">
	.st0{fill:#FFCF00;}
</style>
<g>
	<g>
		<path class="st0" d="M34.4,11.8H11.9c-1.3,0-2.5,0.8-3,2L0.3,33.6c-0.9,2.2,0.7,4.6,3,4.6H26c1.4,0,2.5-0.8,3-2l8.3-19.9
			C38.4,14.2,36.8,11.8,34.4,11.8z"/>
		<g>
			<path d="M41.1,18.8h2.3l3.8,6.5h0.1l3.8-6.5h2.3V31H51v-6l0.1-2H51l-3.1,5.5h-1.4l-3.2-5.5h-0.1l0.1,2v6h-2.3V18.8z"/>
			<path d="M59.1,22.4c0.7,0,1.2,0.1,1.8,0.3c0.6,0.2,1,0.6,1.4,0.9c0.4,0.4,0.7,0.9,0.9,1.4c0.2,0.6,0.3,1.2,0.3,1.8
				c0,0.7-0.1,1.2-0.3,1.8c-0.2,0.6-0.6,1-0.9,1.4c-0.4,0.4-0.9,0.7-1.4,0.9c-0.6,0.2-1.1,0.3-1.8,0.3c-0.7,0-1.2-0.1-1.8-0.3
				c-0.6-0.2-1-0.6-1.4-0.9c-0.4-0.4-0.7-0.9-0.9-1.4c-0.2-0.6-0.3-1.2-0.3-1.8c0-0.7,0.1-1.2,0.3-1.8c0.2-0.6,0.6-1,0.9-1.4
				c0.4-0.4,0.9-0.7,1.4-0.9C57.9,22.5,58.4,22.4,59.1,22.4z M59.1,29.2c0.3,0,0.6-0.1,0.8-0.2s0.5-0.2,0.7-0.5
				c0.2-0.2,0.4-0.4,0.5-0.7c0.1-0.3,0.2-0.6,0.2-1s-0.1-0.7-0.2-1c-0.1-0.3-0.3-0.6-0.5-0.7c-0.2-0.2-0.4-0.4-0.7-0.5
				c-0.2-0.1-0.6-0.2-0.8-0.2c-0.3,0-0.6,0.1-0.9,0.2c-0.2,0.1-0.5,0.2-0.7,0.5c-0.2,0.2-0.4,0.4-0.5,0.7c-0.1,0.3-0.2,0.6-0.2,1
				s0.1,0.7,0.2,1c0.1,0.3,0.3,0.6,0.5,0.7c0.2,0.2,0.4,0.4,0.7,0.5C58.5,29.1,58.8,29.2,59.1,29.2z"/>
			<path d="M65.4,24.5h-1.5v-1.9h1.5v-2.5h2.2v2.6h2v1.9h-2v3.3c0,0.2,0,0.4,0.1,0.6c0.1,0.2,0.1,0.3,0.2,0.4
				c0.2,0.2,0.4,0.3,0.7,0.3c0.2,0,0.4,0,0.4-0.1c0.1-0.1,0.2-0.1,0.3-0.2l0.6,2c-0.2,0.1-0.6,0.2-0.9,0.3c-0.3,0.1-0.6,0.1-1,0.1
				c-0.4,0-0.8-0.1-1.1-0.2c-0.3-0.1-0.6-0.3-0.9-0.6c-0.6-0.5-0.8-1.3-0.8-2.2L65.4,24.5L65.4,24.5z"/>
			<path d="M74.6,22.4c0.7,0,1.2,0.1,1.8,0.3c0.6,0.2,1,0.6,1.4,0.9c0.4,0.4,0.7,0.9,0.9,1.4c0.2,0.6,0.3,1.2,0.3,1.8
				c0,0.7-0.1,1.2-0.3,1.8c-0.2,0.6-0.6,1-0.9,1.4c-0.4,0.4-0.9,0.7-1.4,0.9c-0.6,0.2-1.1,0.3-1.8,0.3s-1.2-0.1-1.8-0.3
				c-0.6-0.2-1-0.6-1.4-0.9c-0.4-0.4-0.7-0.9-0.9-1.4c-0.2-0.6-0.3-1.2-0.3-1.8c0-0.7,0.1-1.2,0.3-1.8c0.2-0.6,0.6-1,0.9-1.4
				c0.4-0.4,0.9-0.7,1.4-0.9C73.4,22.5,74,22.4,74.6,22.4z M74.6,29.2c0.3,0,0.6-0.1,0.8-0.2s0.5-0.2,0.7-0.5
				c0.2-0.2,0.4-0.4,0.5-0.7c0.1-0.3,0.2-0.6,0.2-1s-0.1-0.7-0.2-1c-0.1-0.3-0.3-0.6-0.5-0.7c-0.2-0.2-0.4-0.4-0.7-0.5
				s-0.6-0.2-0.8-0.2c-0.3,0-0.6,0.1-0.9,0.2c-0.2,0.1-0.5,0.2-0.7,0.5c-0.2,0.2-0.4,0.4-0.5,0.7c-0.1,0.3-0.2,0.6-0.2,1
				s0.1,0.7,0.2,1c0.1,0.3,0.3,0.6,0.5,0.7c0.2,0.2,0.4,0.4,0.7,0.5C74,29.1,74.3,29.2,74.6,29.2z"/>
			<path d="M80.1,22.6h2.1v1.2h0.1c0.1-0.2,0.2-0.4,0.4-0.6c0.2-0.2,0.4-0.3,0.6-0.4c0.2-0.1,0.4-0.2,0.7-0.3s0.5-0.1,0.7-0.1
				c0.3,0,0.6,0.1,0.7,0.1c0.2,0.1,0.4,0.1,0.6,0.2l-0.6,2c-0.1-0.1-0.3-0.1-0.4-0.2c-0.2-0.1-0.4-0.1-0.6-0.1
				c-0.3,0-0.6,0.1-0.9,0.2s-0.5,0.3-0.6,0.5c-0.2,0.2-0.3,0.5-0.4,0.7c-0.1,0.3-0.1,0.6-0.1,0.9v4.1h-2.2L80.1,22.6L80.1,22.6z"/>
			<path d="M88.1,31v-10h-3.4v-2.2h9.1v2.2h-3.4v10C90.4,31,88.1,31,88.1,31z"/>
			<path d="M93.5,22.6h2.1v1.2h0.1c0.1-0.2,0.2-0.4,0.4-0.6c0.2-0.2,0.4-0.3,0.6-0.4c0.2-0.1,0.4-0.2,0.7-0.3s0.5-0.1,0.7-0.1
				c0.3,0,0.6,0.1,0.7,0.1s0.4,0.1,0.6,0.2l-0.6,2c-0.1-0.1-0.3-0.1-0.4-0.2c-0.2-0.1-0.4-0.1-0.6-0.1c-0.3,0-0.6,0.1-0.9,0.2
				c-0.2,0.1-0.5,0.3-0.6,0.5c-0.2,0.2-0.3,0.5-0.4,0.7c-0.1,0.3-0.1,0.6-0.1,0.9v4.1h-2.2L93.5,22.6L93.5,22.6z"/>
			<path d="M104.9,23c0.5,0.3,0.9,0.8,1,1.4v-1.7h2.1V31H106v-1.7c-0.2,0.6-0.6,1-1,1.4c-0.5,0.3-1.1,0.5-1.8,0.5
				c-0.7,0-1.4-0.2-1.9-0.5c-0.6-0.4-1-0.9-1.3-1.5c-0.3-0.6-0.5-1.4-0.5-2.3s0.2-1.6,0.5-2.3c0.3-0.6,0.7-1.1,1.3-1.5
				c0.6-0.4,1.2-0.5,1.9-0.5C103.8,22.5,104.4,22.7,104.9,23z M102.2,25.1c-0.4,0.4-0.6,1-0.6,1.8s0.2,1.4,0.6,1.8
				c0.4,0.4,0.9,0.6,1.6,0.6c0.6,0,1.2-0.2,1.6-0.7c0.4-0.4,0.6-1,0.6-1.7c0-0.7-0.2-1.4-0.6-1.8c-0.4-0.4-0.9-0.7-1.6-0.7
				C103.1,24.4,102.6,24.6,102.2,25.1z"/>
			<path d="M115.9,30h-0.1c-0.2,0.4-0.5,0.7-0.9,0.9c-0.4,0.2-1,0.4-1.6,0.4c-0.6,0-1-0.1-1.5-0.3c-0.5-0.2-0.9-0.6-1.3-0.9
				c-0.4-0.4-0.7-0.9-0.9-1.4c-0.2-0.6-0.3-1.2-0.3-1.8c0-0.7,0.1-1.2,0.3-1.8c0.2-0.6,0.5-1,0.9-1.4c0.4-0.4,0.8-0.7,1.3-0.9
				c0.5-0.2,1-0.3,1.5-0.3c0.6,0,1.2,0.1,1.6,0.4c0.4,0.2,0.7,0.6,0.9,0.9h0.1l-0.1-1.2v-3.6h2.2v12.2h-2.1V30z M113.7,29.2
				c0.3,0,0.6-0.1,0.9-0.2c0.2-0.1,0.5-0.2,0.7-0.5c0.2-0.2,0.4-0.4,0.5-0.7c0.1-0.3,0.2-0.6,0.2-1s-0.1-0.7-0.2-1
				c-0.1-0.3-0.3-0.6-0.5-0.7c-0.2-0.2-0.4-0.4-0.7-0.5c-0.2-0.1-0.6-0.2-0.9-0.2s-0.6,0.1-0.9,0.2c-0.2,0.1-0.5,0.2-0.7,0.5
				c-0.2,0.2-0.4,0.4-0.5,0.7c-0.1,0.3-0.2,0.6-0.2,1s0.1,0.7,0.2,1c0.1,0.3,0.3,0.6,0.5,0.7s0.4,0.4,0.7,0.5
				C113.2,29.1,113.4,29.2,113.7,29.2z"/>
			<path d="M127.5,28.9c-0.4,0.7-0.9,1.2-1.5,1.7c-0.7,0.4-1.5,0.6-2.4,0.6c-0.6,0-1.2-0.1-1.8-0.3c-0.6-0.2-1-0.6-1.4-0.9
				c-0.4-0.4-0.7-0.9-0.9-1.4c-0.2-0.6-0.3-1.1-0.3-1.8c0-0.6,0.1-1.2,0.3-1.7c0.2-0.6,0.5-1,0.9-1.4c0.4-0.4,0.9-0.7,1.4-1
				c0.6-0.2,1.1-0.4,1.7-0.4c0.7,0,1.3,0.1,1.8,0.3c0.5,0.2,1,0.6,1.3,0.9c0.4,0.4,0.6,0.9,0.8,1.4c0.2,0.6,0.2,1.1,0.2,1.7
				c0,0.1,0,0.1,0,0.2c0,0.1,0,0.1,0,0.2c0,0.1,0,0.1,0,0.2h-6.3c0.1,0.4,0.1,0.6,0.3,0.9c0.1,0.2,0.3,0.4,0.6,0.6
				c0.2,0.2,0.4,0.3,0.7,0.4c0.2,0.1,0.5,0.1,0.7,0.1c0.5,0,0.9-0.1,1.3-0.4c0.3-0.2,0.6-0.6,0.8-0.9L127.5,28.9z M125.5,25.7
				c0-0.1-0.1-0.3-0.1-0.5c-0.1-0.2-0.2-0.4-0.4-0.5c-0.2-0.2-0.4-0.3-0.6-0.4c-0.2-0.1-0.6-0.1-0.9-0.1c-0.5,0-0.9,0.1-1.2,0.4
				c-0.4,0.2-0.6,0.7-0.7,1.2h3.9V25.7z"/>
			<path d="M128.7,22.6h2.1v1.2h0.1c0.1-0.2,0.2-0.4,0.4-0.6c0.2-0.2,0.4-0.3,0.6-0.4c0.2-0.1,0.4-0.2,0.7-0.3
				c0.2-0.1,0.5-0.1,0.7-0.1c0.3,0,0.6,0.1,0.7,0.1s0.4,0.1,0.6,0.2l-0.6,2c-0.1-0.1-0.3-0.1-0.4-0.2c-0.2-0.1-0.4-0.1-0.6-0.1
				c-0.3,0-0.6,0.1-0.9,0.2s-0.5,0.3-0.6,0.5c-0.2,0.2-0.3,0.5-0.4,0.7c-0.1,0.3-0.1,0.6-0.1,0.9v4.1h-2.2V22.6L128.7,22.6z"/>
		</g>
		<path d="M30,16.6c-1-0.4-2.3,0.1-2.7,1.1l-0.4,1H16.3c0.1-0.9-0.4-1.7-1.2-2.1c-1-0.4-2.3,0.1-2.7,1.1l-5.6,13
			c-0.4,1,0.1,2.3,1.1,2.7c0.2,0.1,0.6,0.2,0.8,0.2c0.8,0,1.5-0.5,1.9-1.2l4.1-9.6h3l-2.9,6.7c-0.4,1,0.1,2.3,1.1,2.7
			c0.2,0.1,0.6,0.2,0.8,0.2c0.8,0,1.5-0.5,1.9-1.2l3.6-8.4h3l-3.4,7.9c-0.4,1,0.1,2.3,1.1,2.7c0.2,0.1,0.6,0.2,0.8,0.2
			c0.8,0,1.5-0.5,1.9-1.2L31,19.3C31.5,18.2,31,17,30,16.6z"/>
	</g>
	<g>
		<path d="M137.9,18.9c0.2,0.2,0.3,0.5,0.3,0.8c0,0.4-0.1,0.7-0.4,1c-0.3,0.2-0.7,0.4-1.2,0.4h-1.9V16h1.9c0.5,0,0.9,0.1,1.2,0.3
			c0.3,0.2,0.4,0.5,0.4,0.9c0,0.3-0.1,0.6-0.3,0.8c-0.2,0.2-0.4,0.3-0.7,0.4C137.4,18.5,137.7,18.7,137.9,18.9z M135.3,18.2h1.1
			c0.3,0,0.6-0.1,0.7-0.2c0.2-0.1,0.3-0.4,0.3-0.6c0-0.3-0.1-0.5-0.3-0.6c-0.2-0.1-0.4-0.2-0.8-0.2h-1.1V18.2z M137.2,20.3
			c0.2-0.2,0.3-0.4,0.3-0.7c0-0.3-0.1-0.5-0.3-0.7c-0.2-0.2-0.5-0.2-0.8-0.2h-1.1v1.8h1.1C136.8,20.5,137,20.4,137.2,20.3z"/>
		<path d="M142.6,19.2h-3.2c0,0.5,0.1,0.8,0.4,1c0.2,0.2,0.5,0.3,0.9,0.3c0.3,0,0.6-0.1,0.8-0.2c0.2-0.2,0.3-0.4,0.4-0.6h0.7
			c0,0.3-0.2,0.5-0.3,0.7c-0.2,0.2-0.4,0.4-0.6,0.5c-0.3,0.1-0.6,0.2-0.9,0.2c-0.4,0-0.7-0.1-1-0.2c-0.3-0.2-0.5-0.4-0.7-0.7
			c-0.2-0.3-0.2-0.7-0.2-1.1s0.1-0.8,0.2-1.1c0.2-0.3,0.4-0.5,0.7-0.7c0.3-0.2,0.6-0.2,1-0.2c0.4,0,0.7,0.1,1,0.2
			c0.3,0.2,0.5,0.4,0.7,0.7s0.2,0.6,0.2,0.9C142.6,19,142.6,19.1,142.6,19.2z M141.8,18.2c-0.1-0.2-0.3-0.3-0.5-0.4
			s-0.4-0.1-0.6-0.1c-0.4,0-0.7,0.1-0.9,0.3s-0.4,0.6-0.4,1h2.5C142,18.6,141.9,18.4,141.8,18.2z"/>
		<path d="M145.4,20.5v0.6h-0.5c-0.4,0-0.7-0.1-0.9-0.3c-0.2-0.2-0.3-0.5-0.3-1v-2.1h-0.6v-0.6h0.6v-1h0.7v1h1v0.6h-1v2.1
			c0,0.3,0,0.4,0.1,0.5c0.1,0.1,0.3,0.1,0.5,0.1H145.4z"/>
		<path d="M148.8,17.4c0.3,0.2,0.5,0.4,0.6,0.8v-1h0.7v4h-0.7v-1c-0.1,0.3-0.3,0.6-0.6,0.8c-0.3,0.2-0.6,0.3-1,0.3
			c-0.4,0-0.7-0.1-0.9-0.2c-0.3-0.2-0.5-0.4-0.6-0.7c-0.2-0.3-0.2-0.7-0.2-1.1s0.1-0.8,0.2-1.1c0.2-0.3,0.4-0.5,0.6-0.7
			c0.3-0.2,0.6-0.2,0.9-0.2C148.2,17.1,148.5,17.2,148.8,17.4z M147,18c-0.2,0.3-0.4,0.6-0.4,1.1s0.1,0.8,0.4,1.1
			c0.2,0.3,0.6,0.4,1,0.4c0.3,0,0.5-0.1,0.7-0.2c0.2-0.1,0.4-0.3,0.5-0.5c0.1-0.2,0.2-0.5,0.2-0.8c0-0.3-0.1-0.5-0.2-0.8
			c-0.1-0.2-0.3-0.4-0.5-0.5c-0.2-0.1-0.4-0.2-0.7-0.2C147.6,17.7,147.3,17.8,147,18z"/>
	</g>
</g>
</svg>
