<?xml version="1.0" encoding="utf-8"?>
<!-- Generator: Adobe Illustrator 24.1.0, SVG Export Plug-In . SVG Version: 6.00 Build 0)  -->
<svg version="1.1" id="Layer_1" xmlns="http://www.w3.org/2000/svg" xmlns:xlink="http://www.w3.org/1999/xlink" x="0px" y="0px"
	 viewBox="0 0 222 72" style="enable-background:new 0 0 222 72;" xml:space="preserve">
<style type="text/css">
	.st0{fill:#FFCF00;}
</style>
<g>
	<g>
		<path class="st0" d="M52.1,16.6H19c-1.9,0-3.7,1.2-4.4,2.9L2,48.7c-1.4,3.2,1,6.8,4.4,6.8h33.5c2,0,3.7-1.2,4.4-3l12.2-29.2
			C57.9,20.1,55.6,16.6,52.1,16.6z"/>
		<g>
			<path d="M61.9,26.9h3.3l5.5,9.5H71l5.5-9.5h3.3v17.9h-3.3v-8.9l0.2-3h-0.2l-4.5,8h-2l-4.7-8h-0.2l0.2,3v8.9h-3.3V26.9z"/>
			<path d="M88.4,32.1c1,0,1.8,0.2,2.6,0.5c0.8,0.4,1.4,0.8,2.1,1.4c0.5,0.5,1,1.3,1.4,2.1c0.4,0.8,0.5,1.7,0.5,2.6
				c0,1-0.2,1.8-0.5,2.6c-0.4,0.8-0.8,1.4-1.4,2.1c-0.5,0.5-1.3,1-2.1,1.4c-0.8,0.4-1.6,0.5-2.6,0.5c-1,0-1.8-0.2-2.6-0.5
				c-0.8-0.4-1.4-0.8-2.1-1.4c-0.5-0.5-1-1.3-1.4-2.1c-0.4-0.8-0.5-1.7-0.5-2.6c0-1,0.2-1.8,0.5-2.6c0.4-0.8,0.8-1.4,1.4-2.1
				c0.5-0.5,1.3-1,2.1-1.4C86.6,32.3,87.4,32.1,88.4,32.1z M88.4,42.1c0.5,0,0.8-0.1,1.2-0.3c0.4-0.2,0.7-0.4,1-0.7
				c0.3-0.3,0.5-0.6,0.7-1.1c0.2-0.5,0.3-0.9,0.3-1.4s-0.1-1.1-0.3-1.4c-0.2-0.5-0.5-0.8-0.7-1.1c-0.3-0.3-0.6-0.5-1-0.7
				c-0.4-0.2-0.8-0.3-1.2-0.3c-0.5,0-0.8,0.1-1.3,0.3c-0.4,0.2-0.7,0.4-1,0.7c-0.3,0.3-0.5,0.6-0.7,1.1c-0.2,0.5-0.3,0.9-0.3,1.4
				s0.1,1.1,0.3,1.4c0.2,0.5,0.5,0.8,0.7,1.1c0.3,0.3,0.6,0.5,1,0.7C87.5,42.1,88,42.1,88.4,42.1z"/>
			<path d="M97.6,35.3h-2.2v-2.8h2.2v-3.7h3.3v3.8h3v2.8h-3v4.9c0,0.3,0,0.5,0.1,0.8c0.1,0.3,0.2,0.5,0.4,0.6c0.3,0.3,0.5,0.5,1,0.5
				c0.3,0,0.5,0,0.6-0.1c0.2-0.1,0.4-0.2,0.5-0.3l0.9,2.9c-0.4,0.2-0.8,0.4-1.3,0.5c-0.5,0.1-0.9,0.2-1.4,0.2
				c-0.6,0-1.2-0.1-1.6-0.3c-0.5-0.2-0.9-0.5-1.3-0.8c-0.8-0.7-1.2-1.9-1.2-3.3L97.6,35.3L97.6,35.3z"/>
			<path d="M111.2,32.1c1,0,1.8,0.2,2.6,0.5c0.8,0.4,1.4,0.8,2.1,1.4c0.5,0.5,1,1.3,1.4,2.1c0.4,0.8,0.5,1.7,0.5,2.6
				c0,1-0.2,1.8-0.5,2.6c-0.4,0.8-0.8,1.4-1.4,2.1c-0.5,0.5-1.3,1-2.1,1.4c-0.8,0.4-1.6,0.5-2.6,0.5c-1,0-1.8-0.2-2.6-0.5
				c-0.8-0.4-1.4-0.8-2.1-1.4c-0.5-0.5-1-1.3-1.4-2.1c-0.4-0.8-0.5-1.7-0.5-2.6c0-1,0.2-1.8,0.5-2.6c0.4-0.8,0.8-1.4,1.4-2.1
				c0.5-0.5,1.3-1,2.1-1.4C109.4,32.3,110.3,32.1,111.2,32.1z M111.2,42.1c0.5,0,0.8-0.1,1.2-0.3c0.4-0.2,0.7-0.4,1-0.7
				c0.3-0.3,0.5-0.6,0.7-1.1c0.2-0.5,0.3-0.9,0.3-1.4s-0.1-1.1-0.3-1.4c-0.2-0.5-0.5-0.8-0.7-1.1c-0.3-0.3-0.6-0.5-1-0.7
				c-0.4-0.2-0.8-0.3-1.2-0.3c-0.5,0-0.8,0.1-1.3,0.3c-0.4,0.2-0.7,0.4-1,0.7c-0.3,0.3-0.5,0.6-0.7,1.1c-0.2,0.5-0.3,0.9-0.3,1.4
				s0.1,1.1,0.3,1.4c0.2,0.5,0.5,0.8,0.7,1.1c0.3,0.3,0.6,0.5,1,0.7C110.4,42.1,110.7,42.1,111.2,42.1z"/>
			<path d="M119.3,32.5h3.1v1.7h0.2c0.2-0.3,0.4-0.5,0.6-0.8c0.3-0.3,0.5-0.5,0.8-0.6c0.3-0.2,0.6-0.4,1-0.5
				c0.4-0.1,0.7-0.2,1.1-0.2c0.5,0,0.8,0.1,1.1,0.2s0.5,0.2,0.8,0.4l-0.9,2.9c-0.2-0.1-0.5-0.2-0.6-0.3c-0.3-0.1-0.5-0.1-0.9-0.1
				c-0.5,0-0.9,0.1-1.3,0.3c-0.4,0.2-0.7,0.5-0.9,0.7c-0.3,0.4-0.5,0.7-0.6,1.1c-0.2,0.5-0.2,0.9-0.2,1.4v6.1h-3.3L119.3,32.5
				L119.3,32.5z"/>
			<path d="M131,44.8V30h-5v-3.2h13.4V30h-5v14.7C134.4,44.8,131,44.8,131,44.8z"/>
			<path d="M139,32.5h3.1v1.7h0.2c0.2-0.3,0.4-0.5,0.6-0.8c0.3-0.3,0.5-0.5,0.8-0.6c0.3-0.2,0.6-0.4,1-0.5c0.4-0.1,0.7-0.2,1.1-0.2
				c0.5,0,0.8,0.1,1.1,0.2c0.3,0.1,0.5,0.2,0.8,0.4l-0.9,2.9c-0.2-0.1-0.5-0.2-0.6-0.3c-0.3-0.1-0.5-0.1-0.9-0.1
				c-0.5,0-0.9,0.1-1.3,0.3c-0.4,0.2-0.7,0.5-0.9,0.7c-0.3,0.4-0.5,0.7-0.6,1.1c-0.2,0.5-0.2,0.9-0.2,1.4v6.1H139L139,32.5L139,32.5
				z"/>
			<path d="M155.8,33.1c0.7,0.5,1.3,1.2,1.5,2v-2.5h3.1v12.2h-3.1v-2.5c-0.3,0.8-0.8,1.4-1.5,2c-0.7,0.5-1.6,0.7-2.6,0.7
				c-1,0-2-0.3-2.8-0.7c-0.8-0.5-1.4-1.3-1.9-2.2c-0.5-0.9-0.7-2.1-0.7-3.3s0.3-2.4,0.7-3.3c0.5-0.9,1.1-1.6,1.9-2.2
				c0.8-0.5,1.7-0.7,2.8-0.7C154.1,32.4,155,32.7,155.8,33.1z M151.7,36.1c-0.5,0.6-0.9,1.5-0.9,2.6c0,1.1,0.3,2,0.9,2.6
				c0.5,0.6,1.4,0.9,2.4,0.9c0.9,0,1.7-0.4,2.4-1c0.6-0.6,0.9-1.5,0.9-2.5c0-1.1-0.3-2-0.9-2.6c-0.6-0.6-1.4-1-2.4-1
				C153.1,35.1,152.3,35.5,151.7,36.1z"/>
			<path d="M172,43.3h-0.2c-0.3,0.5-0.7,1-1.4,1.4c-0.6,0.4-1.4,0.5-2.4,0.5c-0.8,0-1.5-0.2-2.3-0.5c-0.7-0.4-1.4-0.8-1.9-1.4
				c-0.5-0.5-1-1.3-1.3-2.1c-0.4-0.8-0.5-1.7-0.5-2.6c0-1,0.2-1.8,0.5-2.6c0.4-0.8,0.7-1.4,1.3-2.1c0.5-0.5,1.2-1,1.9-1.4
				c0.7-0.4,1.4-0.5,2.3-0.5c0.9,0,1.7,0.2,2.4,0.5c0.6,0.4,1.1,0.8,1.4,1.4h0.2l-0.2-1.7V27h3.3V45H172V43.3z M168.7,42.1
				c0.5,0,0.8-0.1,1.3-0.3c0.4-0.2,0.7-0.4,1-0.7c0.3-0.3,0.5-0.6,0.7-1.1c0.2-0.5,0.3-0.9,0.3-1.4s-0.1-1.1-0.3-1.4
				c-0.2-0.5-0.5-0.8-0.7-1.1c-0.3-0.3-0.6-0.5-1-0.7c-0.4-0.2-0.8-0.3-1.3-0.3c-0.5,0-0.8,0.1-1.3,0.3c-0.4,0.2-0.7,0.4-1,0.7
				c-0.3,0.3-0.5,0.6-0.7,1.1s-0.3,0.9-0.3,1.4s0.1,1,0.3,1.4c0.2,0.5,0.5,0.8,0.7,1.1c0.3,0.3,0.6,0.5,1,0.7
				C167.9,42.1,168.2,42.1,168.7,42.1z"/>
			<path d="M189,41.8c-0.5,1-1.4,1.8-2.3,2.4c-1,0.6-2.2,0.9-3.5,0.9c-0.9,0-1.8-0.2-2.6-0.5c-0.8-0.4-1.4-0.8-2.1-1.4
				c-0.5-0.5-1-1.3-1.4-2.1c-0.4-0.8-0.5-1.6-0.5-2.6c0-0.9,0.2-1.7,0.5-2.5c0.4-0.8,0.7-1.4,1.4-2.1c0.5-0.6,1.3-1.1,2-1.4
				c0.8-0.4,1.6-0.5,2.5-0.5c1,0,1.9,0.2,2.6,0.5c0.7,0.4,1.4,0.8,1.9,1.4c0.5,0.5,0.9,1.3,1.2,2.1c0.3,0.8,0.4,1.6,0.4,2.5
				c0,0.1,0,0.2,0,0.3s0,0.2,0,0.3s0,0.2,0,0.3h-9.2c0.1,0.5,0.2,0.9,0.5,1.3c0.2,0.4,0.5,0.6,0.8,0.9c0.3,0.3,0.6,0.5,1,0.5
				c0.4,0.1,0.7,0.2,1.1,0.2c0.7,0,1.4-0.2,1.9-0.5c0.5-0.4,0.9-0.8,1.2-1.3L189,41.8z M186,37.1c0-0.2-0.1-0.5-0.2-0.7
				c-0.1-0.3-0.3-0.5-0.5-0.7c-0.3-0.3-0.5-0.5-0.9-0.5c-0.4-0.2-0.8-0.2-1.3-0.2c-0.7,0-1.4,0.2-1.8,0.6c-0.5,0.4-0.9,1-1.1,1.7
				h5.8V37.1z"/>
			<path d="M190.8,32.5h3.1v1.7h0.2c0.2-0.3,0.4-0.5,0.6-0.8c0.3-0.3,0.5-0.5,0.8-0.6c0.3-0.2,0.6-0.4,1-0.5
				c0.4-0.1,0.7-0.2,1.1-0.2c0.5,0,0.8,0.1,1.1,0.2c0.3,0.1,0.5,0.2,0.8,0.4l-0.9,2.9c-0.2-0.1-0.5-0.2-0.6-0.3
				c-0.3-0.1-0.5-0.1-0.9-0.1c-0.5,0-0.9,0.1-1.3,0.3c-0.4,0.2-0.7,0.5-0.9,0.7c-0.3,0.4-0.5,0.7-0.6,1.1c-0.2,0.5-0.2,0.9-0.2,1.4
				v6.1h-3.3L190.8,32.5L190.8,32.5z"/>
		</g>
		<path d="M45.6,23.6c-1.5-0.6-3.3,0.1-4,1.6L41,26.7H25.5c0.1-1.3-0.5-2.5-1.8-3.1c-1.5-0.6-3.3,0.1-4,1.6l-8.2,19.2
			c-0.6,1.5,0.1,3.3,1.6,4c0.4,0.2,0.8,0.3,1.2,0.3c1.2,0,2.3-0.7,2.8-1.8l6.1-14.1h4.4l-4.2,9.9c-0.6,1.5,0.1,3.3,1.6,4
			c0.4,0.2,0.8,0.3,1.2,0.3c1.2,0,2.3-0.7,2.8-1.8l5.2-12.3h4.4l-5,11.7c-0.6,1.5,0.1,3.3,1.6,4c0.4,0.2,0.8,0.3,1.2,0.3
			c1.2,0,2.3-0.7,2.8-1.8l8-19.3C47.9,26.1,47.2,24.2,45.6,23.6z"/>
	</g>
	<g>
		<path d="M204.2,27c0.3,0.3,0.4,0.7,0.4,1.2c0,0.6-0.2,1.1-0.6,1.5c-0.4,0.4-1,0.6-1.8,0.6h-2.8v-7.5h2.7c0.7,0,1.3,0.2,1.7,0.5
			c0.4,0.3,0.6,0.8,0.6,1.4c0,0.5-0.1,0.9-0.4,1.2c-0.3,0.3-0.6,0.5-1,0.6C203.5,26.5,203.9,26.7,204.2,27z M200.4,26h1.6
			c0.5,0,0.8-0.1,1.1-0.3c0.2-0.2,0.4-0.5,0.4-0.9c0-0.4-0.1-0.7-0.4-0.9c-0.2-0.2-0.6-0.3-1.1-0.3h-1.6V26z M203.2,29.1
			c0.3-0.2,0.4-0.6,0.4-1c0-0.4-0.1-0.7-0.4-1c-0.3-0.2-0.7-0.4-1.2-0.4h-1.6v2.7h1.6C202.5,29.4,202.9,29.3,203.2,29.1z"/>
		<path d="M211.1,27.5h-4.6c0,0.7,0.2,1.2,0.6,1.5c0.4,0.3,0.8,0.5,1.3,0.5c0.5,0,0.9-0.1,1.2-0.4c0.3-0.2,0.5-0.6,0.6-0.9h1
			c-0.1,0.4-0.2,0.8-0.5,1.1c-0.2,0.3-0.6,0.6-0.9,0.7c-0.4,0.2-0.8,0.3-1.3,0.3c-0.6,0-1.1-0.1-1.5-0.4c-0.4-0.2-0.8-0.6-1-1
			c-0.2-0.4-0.4-1-0.4-1.6c0-0.6,0.1-1.1,0.4-1.6c0.2-0.5,0.6-0.8,1-1c0.4-0.2,0.9-0.4,1.5-0.4c0.6,0,1.1,0.1,1.5,0.4
			c0.4,0.2,0.7,0.6,1,1c0.2,0.4,0.3,0.8,0.3,1.3C211.2,27.2,211.2,27.4,211.1,27.5z M210,26c-0.2-0.3-0.4-0.5-0.7-0.6
			c-0.3-0.1-0.6-0.2-0.9-0.2c-0.5,0-1,0.2-1.3,0.5c-0.4,0.3-0.6,0.8-0.6,1.4h3.7C210.2,26.6,210.2,26.3,210,26z"/>
		<path d="M215.2,29.4v0.8h-0.7c-0.6,0-1-0.1-1.3-0.4c-0.3-0.3-0.4-0.8-0.4-1.4v-3.1h-0.9v-0.8h0.9V23h1v1.5h1.5v0.8h-1.5v3.2
			c0,0.4,0.1,0.6,0.2,0.8c0.1,0.1,0.4,0.2,0.7,0.2H215.2z"/>
		<path d="M220.2,24.8c0.4,0.3,0.7,0.7,0.8,1.1v-1.5h1v5.8h-1v-1.5c-0.2,0.5-0.4,0.9-0.8,1.1s-0.9,0.4-1.4,0.4c-0.5,0-1-0.1-1.4-0.4
			c-0.4-0.2-0.7-0.6-0.9-1c-0.2-0.4-0.3-1-0.3-1.6c0-0.6,0.1-1.1,0.3-1.6c0.2-0.5,0.5-0.8,0.9-1c0.4-0.2,0.9-0.4,1.4-0.4
			C219.3,24.3,219.8,24.5,220.2,24.8z M217.6,25.8c-0.4,0.4-0.5,0.9-0.5,1.6s0.2,1.2,0.5,1.6c0.4,0.4,0.8,0.6,1.4,0.6
			c0.4,0,0.7-0.1,1-0.3c0.3-0.2,0.5-0.4,0.7-0.7c0.2-0.3,0.3-0.7,0.3-1.1c0-0.4-0.1-0.8-0.3-1.1c-0.2-0.3-0.4-0.6-0.7-0.7
			c-0.3-0.2-0.6-0.3-1-0.3C218.5,25.2,218,25.4,217.6,25.8z"/>
	</g>
</g>
</svg>
