<svg id="Layer_1" enable-background="new 0 0 511.821 511.821" height="45" viewBox="0 0 511.821 511.821" width="45" xmlns="http://www.w3.org/2000/svg"><g><path d="m501.204 68.099-15.281-27.675c-.888-1.608-.884-3.559.009-5.164l15.226-27.346c1.976-3.548-.59-7.914-4.652-7.914h-138.561c-6.13 0-11.099 4.969-11.099 11.099v109.32h31.794v-44.421h117.902c4.054 0 6.621-4.35 4.662-7.899z"/><g><g><circle cx="362.743" cy="297.228" r="17.998"/><path d="m476.259 421.405c7.517 0 13.61-6.093 13.61-13.61v-138.821c0-62.942-49.515-114.402-111.229-116.673v97.753c20.457 6.913 35.007 26.764 33.828 49.778-1.307 25.517-22.183 46.138-47.714 47.149-28.368 1.123-51.804-21.629-51.804-49.752 0-21.897 14.214-40.524 33.895-47.175v-97.841h-144.447c30.025 25.096 49.161 62.808 49.161 104.908v164.284z"/><path d="m207.064 453.199v14.935c0 24.127 19.559 43.687 43.687 43.687 24.128 0 43.687-19.559 43.687-43.687v-14.935z"/></g><g><path d="m80.434 321.084h68.841v33.606h-68.841z"/><path d="m114.242 152.214c-57.889.333-104.296 48.172-104.296 106.062v149.519c0 7.517 6.093 13.61 13.61 13.61h196.208v-164.284c0-58.05-47.395-105.241-105.522-104.907zm63.831 216.875c0 7.952-6.447 14.399-14.399 14.399h-97.638c-7.952 0-14.399-6.447-14.399-14.399v-62.403c0-7.952 6.447-14.399 14.399-14.399h97.639c7.952 0 14.399 6.447 14.399 14.399v62.403z"/></g></g></g></svg>