<svg id="Layer_1" enable-background="new 0 0 504.042 504.042" height="45" viewBox="0 0 504.042 504.042" width="45" xmlns="http://www.w3.org/2000/svg"><path d="m252.022 249.257c-8.836 0-16 7.164-16 16v222.785c0 8.836 7.164 16 16 16s16-7.164 16-16v-222.785c0-8.836-7.164-16-16-16z"/><path d="m252.022 217.257c23.341 0 42.834 16.75 47.116 38.858h71.302c-2.244-115.892-50.077-206.116-108.447-252.628-5.834-4.649-14.108-4.649-19.942 0-58.337 46.486-106.204 136.769-108.447 252.628h71.302c4.282-22.108 23.775-38.858 47.116-38.858zm-25.349-87.206c14-14 36.699-14 50.699 0s14 36.698 0 50.699c-14 14-36.699 14-50.699 0s-14-36.699 0-50.699z"/><path d="m300.022 288.115v113.732h35.319c6.885 0 12.998-4.405 15.177-10.936 10.874-32.588 17.35-67.072 19.34-102.797h-69.836z"/><path d="m204.022 288.115h-69.836c1.99 35.725 8.466 70.208 19.34 102.797 2.179 6.531 8.292 10.936 15.177 10.936h35.319z"/><path d="m168.703 433.847c-20.686 0-38.984-13.184-45.532-32.807-11.744-35.197-21.978-123.978-21.978-123.978-39.873 31.339-52.265 86.618-29.217 132.108l36.165 71.38c4.352 8.59 15.273 11.422 23.251 6.012 18.437-12.499 33.558-30.468 42.516-52.715z"/><path d="m402.852 277.063s-10.234 88.781-21.978 123.978c-6.548 19.623-24.846 32.807-45.532 32.807h-5.204c8.684 21.564 23.458 39.795 42.516 52.715 7.963 5.399 18.889 2.598 23.251-6.012l36.165-71.38c23.011-45.421 10.715-100.722-29.218-132.108z"/></svg>